<?xml version="1.0" encoding="UTF-8" standalone="no"?>
<!-- Created with Inkscape (http://www.inkscape.org/) -->

<svg
   xmlns:dc="http://purl.org/dc/elements/1.1/"
   xmlns:cc="http://creativecommons.org/ns#"
   xmlns:rdf="http://www.w3.org/1999/02/22-rdf-syntax-ns#"
   xmlns:svg="http://www.w3.org/2000/svg"
   xmlns="http://www.w3.org/2000/svg"
   xmlns:sodipodi="http://sodipodi.sourceforge.net/DTD/sodipodi-0.dtd"
   xmlns:inkscape="http://www.inkscape.org/namespaces/inkscape"
   width="337.05591"
   height="157.67381"
   id="svg2"
   version="1.1"
   inkscape:version="0.48.2 r9819"
   sodipodi:docname="logo_big.svg"
   inkscape:export-filename="D:\Google Диск\SixHack2016\logo_big.png"
   inkscape:export-xdpi="600"
   inkscape:export-ydpi="600">
  <defs
     id="defs4">
    <inkscape:path-effect
       effect="spiro"
       id="path-effect3032"
       is_visible="true" />
    <inkscape:path-effect
       effect="spiro"
       id="path-effect2999"
       is_visible="true" />
  </defs>
  <sodipodi:namedview
     id="base"
     pagecolor="#ffffff"
     bordercolor="#666666"
     borderopacity="1.0"
     inkscape:pageopacity="0.0"
     inkscape:pageshadow="2"
     inkscape:zoom="1.4"
     inkscape:cx="-5.90118"
     inkscape:cy="77.985791"
     inkscape:document-units="px"
     inkscape:current-layer="layer2"
     showgrid="false"
     inkscape:window-width="1600"
     inkscape:window-height="827"
     inkscape:window-x="-9"
     inkscape:window-y="-9"
     inkscape:window-maximized="1"
     fit-margin-top="0"
     fit-margin-left="0"
     fit-margin-right="0"
     fit-margin-bottom="0" />
  <metadata
     id="metadata7">
    <rdf:RDF>
      <cc:Work
         rdf:about="">
        <dc:format>image/svg+xml</dc:format>
        <dc:type
           rdf:resource="http://purl.org/dc/dcmitype/StillImage" />
        <dc:title></dc:title>
      </cc:Work>
    </rdf:RDF>
  </metadata>
  <g
     inkscape:groupmode="layer"
     id="layer2"
     inkscape:label="2"
     transform="translate(-208.63676,-323.82321)">
    <path
       style="fill:none;stroke:#000000;stroke-width:4;stroke-linecap:round;stroke-linejoin:miter;stroke-miterlimit:10;stroke-opacity:1;stroke-dasharray:none"
       d="m 315.35714,346.46932 c -8.72302,-8.89513 -21.58935,3.20471 -20.03023,13.39144 0.21352,12.53376 17.78477,16.4153 26.19748,9.10331 11.45586,-8.47494 12.15019,-29.05347 -0.80451,-36.47741 -9.0472,-7.88882 -23.14877,-4.61304 -30.50884,3.96592 -7.89588,7.34956 -10.02045,18.59295 -16.39542,26.89992 -6.40177,5.97483 -17.58648,7.37436 -24.22619,0.9974"
       id="path2997"
       inkscape:connector-curvature="0" />
    <path
       style="fill:none;stroke:#000000;stroke-width:4;stroke-linecap:round;stroke-linejoin:miter;stroke-miterlimit:10;stroke-opacity:1;stroke-dasharray:none"
       d="m 235,347.71932 c 5.4759,12.69367 23.20933,20.04529 35.10832,11.53318"
       id="path3030"
       inkscape:connector-curvature="0" />
    <path
       style="fill:none;stroke:#000000;stroke-width:4;stroke-linecap:round;stroke-linejoin:miter;stroke-miterlimit:10;stroke-opacity:1;stroke-dasharray:none"
       d="m 242.43092,348.08586 c 3.66221,7.66452 13.86352,11.27526 21.53741,7.64901"
       id="path3030-1"
       inkscape:connector-curvature="0" />
    <path
       sodipodi:type="arc"
       style="fill:#000000;fill-opacity:1;stroke:#000000;stroke-width:1;stroke-linecap:round;stroke-linejoin:round;stroke-miterlimit:4;stroke-opacity:1;stroke-dasharray:none;stroke-dashoffset:0"
       id="path3053"
       sodipodi:cx="336.88586"
       sodipodi:cy="307.37469"
       sodipodi:rx="27.274118"
       sodipodi:ry="26.263966"
       d="m 364.15998,307.37469 c 0,14.50519 -12.21104,26.26397 -27.27412,26.26397 -15.06308,0 -27.27411,-11.75878 -27.27411,-26.26397 0,-14.50518 12.21103,-26.26396 27.27411,-26.26396 14.99738,0 27.18103,11.6602 27.2736,26.10184"
       sodipodi:start="0"
       sodipodi:end="6.2770125"
       sodipodi:open="true"
       transform="translate(35.636338,43.212482)" />
    <g
       style="font-size:28px;font-style:normal;font-variant:normal;font-weight:normal;font-stretch:normal;line-height:125%;letter-spacing:0px;word-spacing:0px;fill:#000000;fill-opacity:1;stroke:none;font-family:Arial;-inkscape-font-specification:Arial"
       id="text3855">
      <path
         d="m 244.46707,392.83789 -0.37598,0.64941 c -2.05081,3.57752 -3.82815,7.15499 -5.33203,10.73243 l -0.30761,0.78613 -0.44434,-0.23926 c -0.52412,-3.4635 -1.74319,-6.20927 -3.65723,-8.2373 -1.91408,-2.02795 -4.22691,-3.04195 -6.93847,-3.042 -2.8939,5e-5 -5.30926,1.2647 -7.2461,3.79395 -2.43816,3.14457 -3.65723,8.4766 -3.65722,15.99609 -1e-5,6.47138 1.12222,11.54136 3.3667,15.20996 2.24445,3.66863 5.36049,5.50294 9.34814,5.50293 3.19008,10e-6 5.73646,-1.06526 7.63916,-3.1958 1.90264,-2.13052 3.03626,-5.17821 3.40088,-9.14306 0.0911,-0.95702 0.47848,-1.43553 1.16211,-1.43555 0.88864,2e-5 1.33297,0.74058 1.33301,2.22168 -4e-5,2.2103 -0.50134,4.50034 -1.50391,6.87012 -2.11917,5.01302 -6.49417,7.51953 -13.125,7.51953 -5.92449,0 -10.62989,-2.07926 -14.11621,-6.23779 -3.48633,-4.15852 -5.22949,-9.78107 -5.22949,-16.86768 0,-6.53968 1.81152,-12.01982 5.43457,-16.44043 3.62303,-4.42053 8.12336,-6.63081 13.50097,-6.63086 2.55206,5e-5 5.45734,0.62668 8.71582,1.87988 1.70896,0.66086 3.12172,0.99126 4.23829,0.99121 1.20764,5e-5 2.29,-0.33035 3.24707,-0.99121 z m -9.91211,5.91309 c -2.07359,-1.66337 -4.03322,-2.49508 -5.8789,-2.49512 -5.90171,4e-5 -8.85256,5.62829 -8.85254,16.88476 -2e-5,5.12698 0.68358,9.39374 2.05078,12.8003 1.36717,3.40658 3.29262,5.61117 5.77637,6.61377 l 0,0.34179 c -2.68882,-0.54686 -4.83645,-2.61473 -6.44288,-6.20361 -1.60645,-3.58885 -2.40968,-8.12905 -2.40966,-13.6206 -2e-5,-11.78057 3.23566,-17.67086 9.70703,-17.6709 2.18747,4e-5 4.20407,0.96846 6.0498,2.90527 z m 11.14258,23.48144 c -0.36462,5.65105 -1.94258,9.95199 -4.73389,12.90283 -2.79137,2.95085 -6.69355,4.42627 -11.70654,4.42627 -3.80536,0 -7.34865,-1.1735 -10.62988,-3.5205 l 0,-0.27344 c 2.91665,1.91406 6.43715,2.87109 10.56152,2.87109 4.51169,0 8.1917,-1.44694 11.04004,-4.34082 1.38994,-1.41275 2.41533,-2.99641 3.07617,-4.75098 0.66077,-1.75454 1.10511,-4.07876 1.33301,-6.97265 l 0.0684,-0.78613 z m 1.26465,-27.7539 -0.37598,0.64941 c -2.48376,4.23832 -4.46618,8.10062 -5.94726,11.58691 l -0.92286,-0.44433 0.37598,-0.85449 c 1.13929,-2.39255 2.14189,-4.37497 3.00781,-5.94727 l 2.73438,-4.85352 0.3418,-0.61523 z"
         style="font-size:70px;font-family:Algerian;-inkscape-font-specification:Algerian"
         id="path3089" />
      <path
         d="m 280.9368,391.77832 -3.55469,4.0332 5.60547,14.90235 1.36719,-0.75196 -5.0586,-13.46679 3.62305,-4.16992 0.88867,0.37597 -3.45215,3.99903 4.78516,12.74902 c 0.2734,-0.20505 0.4329,-0.33038 0.47852,-0.37598 l 1.12792,-0.95703 c 0.68356,-0.54684 1.1165,-0.93421 1.29883,-1.16211 0.59241,2.59769 1.50387,4.9219 2.73438,6.97266 -0.66085,-0.0455 -1.13937,-0.0683 -1.43555,-0.0684 -2.16475,2e-5 -3.74841,0.34182 -4.75098,1.02539 l 6.18653,16.78223 5.12695,3.96484 -17.26074,0 4.7168,-3.96484 -3.79395,-9.98047 c -2.50654,2.52931 -4.43199,4.93328 -5.77637,7.21191 l -0.78613,-0.20508 c 1.34438,-2.23306 3.34958,-4.72817 6.01563,-7.48535 l 0.27343,-0.3418 -0.64941,-1.5039 c -2.71162,2.25587 -4.95608,4.87631 -6.7334,7.86133 l -0.61523,-0.99121 c -1.18492,-1.89127 -2.70022,-4.04458 -4.5459,-6.45997 l -0.3418,-0.41015 c -1.75457,3.8965 -2.63185,7.06381 -2.63184,9.50195 -1e-5,1.43556 0.24494,2.64893 0.73487,3.64014 0.48989,0.99121 1.66909,2.64893 3.5376,4.97314 0.15948,0.20508 0.41013,0.52409 0.75195,0.95703 l -18.45703,0 -0.6836,-0.92285 17.39746,0 -0.58105,-0.71777 c -1.50392,-1.82291 -2.48944,-3.24137 -2.95654,-4.25537 -0.46714,-1.01399 -0.7007,-2.20458 -0.70069,-3.57178 -10e-6,-2.32421 0.94563,-5.78774 2.83692,-10.39062 l -1.50391,-1.57227 c -0.29624,0.72919 -0.67221,1.80015 -1.12793,3.21289 l -1.12793,3.48633 c -0.61525,1.8685 -0.92286,3.41798 -0.92285,4.64844 -1e-5,1.27605 0.21646,2.33562 0.64941,3.17871 0.43293,0.8431 1.34439,1.99382 2.73438,3.45215 0.1367,0.13672 0.34178,0.35319 0.61523,0.64941 l -17.08984,0 c 3.25846,-1.68619 5.83902,-3.95344 7.7417,-6.80176 1.90266,-2.84829 3.78824,-7.24608 5.65674,-13.19336 l 0.13672,-0.47851 c -1.2077,-1.02537 -2.95086,-1.652 -5.2295,-1.87989 1.25325,-1.86846 2.22167,-3.8167 2.90528,-5.84472 0.319,0.29625 0.51268,0.47854 0.58105,0.54687 l 1.53809,1.43555 c 0.52407,0.50133 1.1507,1.01402 1.87988,1.53808 l 0.61524,-1.5039 -0.41016,-0.3418 c -1.13934,-1.00257 -2.09637,-1.81149 -2.87109,-2.42676 l -0.30762,-0.23925 0.54687,-0.75196 c 1.20767,0.79756 2.36978,1.72041 3.48633,2.76856 l 4.64844,-12.78321 -3.62305,-3.89648 z m -8.44238,10.97168 -3.75977,9.91211 c 0.20506,0.22789 0.31899,0.36461 0.3418,0.41016 l 1.40136,1.57226 c 0.75193,0.82034 1.70896,2.09638 2.8711,3.82813 l 0.34179,0.51269 c 0.9798,-1.23045 2.1419,-2.44952 3.48633,-3.65723 z m -1.53809,-3.96484 -5.43457,14.35546 c 1.73175,1.77737 3.22426,3.53193 4.47754,5.26368 l 1.57226,2.1875 c 0.0228,0.0228 0.1367,0.17091 0.3418,0.44433 0.20505,-0.20506 0.31899,-0.33038 0.3418,-0.37597 l 0.47851,-0.58106 c 0.0683,-0.0911 0.19366,-0.23924 0.37598,-0.44433 -1.59508,-2.46092 -3.45217,-4.6826 -5.57129,-6.66504 l 4.375,-11.55274 z m 20.09766,9.80957 c 0.50125,2.05081 1.75451,4.86493 3.75976,8.44238 -0.50135,-0.0683 -0.78618,-0.10252 -0.85449,-0.10254 l -2.76856,-0.23926 c -1.25329,-0.11391 -2.16475,-0.17087 -2.73437,-0.1709 -0.0912,3e-5 -0.31905,0.0114 -0.68359,0.0342 l 5.708,15.14161 7.62207,6.73339 -19.79004,0 -0.64941,-0.92285 18.14941,0 -6.15234,-5.43457 -6.08398,-16.09863 c 0.7747,-0.20506 1.66337,-0.3076 2.66601,-0.30762 1.23043,2e-5 2.59761,0.10256 4.10156,0.30762 l -0.41015,-0.75195 c -1.45838,-2.68878 -2.4382,-5.11554 -2.93945,-7.28028 z"
         style="font-size:70px;font-family:Algerian;-inkscape-font-specification:Algerian"
         id="path3091" />
      <path
         d="m 334.42801,392.1543 c -1.18493,1.59509 -2.13057,3.2585 -2.83692,4.99023 -1.39,3.41801 -2.31285,5.51436 -2.76855,6.28906 l -0.1709,0.20508 c -0.0912,-0.25061 -0.15953,-0.4443 -0.20508,-0.58105 -0.63804,-2.05075 -1.16213,-3.4749 -1.57226,-4.27246 -0.41018,-0.79749 -1.02542,-1.56083 -1.84571,-2.29004 -2.07358,-1.84566 -4.43198,-2.76851 -7.07519,-2.76856 -2.43817,5e-5 -4.46616,0.67794 -6.08398,2.03369 -1.61785,1.35584 -2.42677,3.05913 -2.42676,5.10987 -10e-6,3.82816 2.88247,6.4372 8.64746,7.82715 l 5.77637,1.40136 c 8.22588,1.98245 12.33883,6.32327 12.33886,13.02246 -3e-5,3.73699 -1.40709,6.87583 -4.22119,9.41651 -2.81415,2.54069 -6.29478,3.81103 -10.44189,3.81103 -2.59768,0 -5.50295,-0.39876 -8.71582,-1.19629 l -3.99903,-0.99121 c -1.61784,-0.38736 -2.95085,-0.58105 -3.99902,-0.58105 -1.38998,0 -2.82552,0.44434 -4.30664,1.33301 l -0.27344,-0.47852 c 2.82552,-4.26106 4.80794,-8.31704 5.94727,-12.16797 l 0.61523,0.1709 c 0.47851,3.57749 1.91406,6.35743 4.30664,8.33984 2.39257,1.98243 5.5257,2.97364 9.39942,2.97364 3.05336,0 5.48011,-0.70638 7.28027,-2.11914 1.8001,-1.41276 2.70017,-3.31542 2.70019,-5.70801 -2e-5,-2.75715 -1.25328,-5.03579 -3.75976,-6.83594 -1.80015,-1.27602 -5.49156,-2.46092 -11.07422,-3.55469 -4.30665,-0.84307 -7.42839,-2.24444 -9.36523,-4.2041 -1.93686,-1.9596 -2.90528,-4.68258 -2.90528,-8.16894 0,-3.60023 1.29313,-6.52259 3.8794,-8.76709 2.58625,-2.24442 5.95295,-3.36666 10.10009,-3.3667 2.666,4e-5 5.77635,0.47856 9.33106,1.43554 1.66338,0.45578 2.89385,0.68364 3.69141,0.6836 1.1165,4e-5 2.33558,-0.38733 3.65722,-1.16211 z m 2.11914,1.43554 -0.30762,0.5127 c -0.93428,1.57231 -1.7318,3.07621 -2.39258,4.51172 -1.59508,3.34964 -2.49514,5.21813 -2.70019,5.60547 l -0.1709,0.23925 -0.82031,-0.34179 0.13672,-0.30762 c 0.66077,-1.50387 1.6178,-3.4635 2.87109,-5.87891 l 2.32422,-4.51171 0.1709,-0.27344 z m -9.98047,6.80176 c -2.50653,-2.66597 -5.19533,-3.99898 -8.06641,-3.99902 -1.73178,4e-5 -3.16733,0.50134 -4.30664,1.5039 -1.13933,1.00265 -1.70899,2.27869 -1.70898,3.82813 -10e-6,1.68623 1.1507,3.418 3.45215,5.19531 l 0.27344,0.1709 -0.1709,0.27344 c -3.00783,-1.34437 -4.51173,-3.29261 -4.51172,-5.84473 -1e-5,-1.7773 0.63801,-3.22424 1.91406,-4.34082 1.27603,-1.11649 2.93944,-1.67476 4.99024,-1.6748 1.95961,4e-5 3.67429,0.41589 5.14404,1.24755 1.4697,0.83175 2.54636,1.99956 3.22998,3.50342 z m 7.86133,13.56934 c 3.09892,2.34702 4.6484,5.55991 4.64844,9.63867 -4e-5,4.35222 -1.68624,8.03793 -5.0586,11.05713 -3.37242,3.0192 -7.47398,4.52881 -12.30468,4.52881 -2.46096,0 -4.68264,-0.25065 -6.66504,-0.75196 l -5.46875,-1.333 c -1.27605,-0.31901 -2.64324,-0.47852 -4.10157,-0.47852 -1.29883,0 -2.49512,0.26205 -3.58886,0.78613 l -0.41016,-0.99121 c 1.18489,-0.54687 2.39258,-0.82031 3.62305,-0.82031 1.36718,0 2.92805,0.20508 4.68261,0.61523 l 5.26368,1.26465 c 2.09633,0.50131 4.30662,0.75196 6.63086,0.75196 4.55726,0 8.43665,-1.45264 11.63818,-4.35791 3.20146,-2.90527 4.80221,-6.42008 4.80225,-10.54444 -4e-5,-3.48631 -1.23051,-6.53969 -3.69141,-9.16015 z m -24.33594,9.84375 c 0.84309,4.10157 3.09895,7.00684 6.76758,8.71582 l 0,0.27344 c -4.23829,-1.23047 -6.80177,-4.16992 -7.69043,-8.81836 z m -4.27246,-11.07422 1.16211,0.64941 c 0.75195,1.34443 2.95084,2.46096 6.59668,3.34961 l 5.50293,1.36719 c 3.73696,0.93426 6.22637,1.73749 7.46826,2.40967 1.24184,0.67222 2.12481,1.69191 2.64893,3.05908 l -0.23926,0.13672 c -1.02542,-1.18488 -2.13626,-2.05077 -3.33252,-2.59766 -1.19631,-0.54685 -3.49205,-1.21905 -6.88721,-2.0166 -4.92189,-1.1393 -8.22592,-2.12482 -9.91211,-2.95654 -1.6862,-0.83168 -2.6888,-1.96531 -3.00781,-3.40088 z"
         style="font-size:70px;font-family:Algerian;-inkscape-font-specification:Algerian"
         id="path3093" />
      <path
         d="m 341.98172,391.77832 16.06445,0 -4.64843,4.5459 0,14.76562 c 0.52407,0.0912 1.1393,0.15954 1.8457,0.20508 l 0,-14.6289 3.72558,-3.69141 0.6836,0.61523 -3.52051,3.48633 0,14.25293 1.12793,0.10254 c 1.75454,0.15953 3.45213,0.23929 5.09277,0.23926 2.36977,3e-5 4.40916,-0.11391 6.11817,-0.3418 l 0,-15.72265 -4.16992,-3.82813 15.79101,0 -4.7168,4.5459 0,35.61523 4.13575,3.69141 -15.72266,0 4.68262,-3.99902 0,-14.49219 c -1.91409,0.45575 -3.88512,0.68361 -5.91309,0.68359 -1.91408,2e-5 -3.8965,-0.10252 -5.94726,-0.30762 l -0.47852,-0.0342 0,14.458 5.63965,6.49414 -17.6709,0 -0.88867,-0.92285 16.67969,0 -4.64844,-5.09277 0,-15.72266 0.99121,0.0684 c 3.00779,0.22789 5.1839,0.34182 6.52832,0.3418 2.18747,2e-5 4.09014,-0.2962 5.70801,-0.88867 l 0,-1.23047 c -2.14196,0.31903 -4.63707,0.47854 -7.48535,0.47851 -1.52672,3e-5 -2.64325,-0.0341 -3.34961,-0.10254 l -3.45215,-0.30761 c -0.13673,-0.0228 -0.39878,-0.0455 -0.78613,-0.0684 l 0,16.95312 4.375,3.69141 -15.79102,0 4.58008,-3.99902 0,-14.93653 c -1.91407,2e-5 -3.44076,0.75198 -4.58008,2.25586 l -0.71777,-0.3418 c 1.32161,-1.66338 3.08756,-2.58624 5.29785,-2.76855 l 0,-1.26465 c -2.55209,3e-5 -4.56869,0.96845 -6.04981,2.90528 l -0.51269,-0.3418 c 1.3444,-3.28123 3.5319,-5.21807 6.5625,-5.81055 l 0,-15.38086 z m 39.5459,1.91406 -3.48633,3.38379 0,34.86328 5.67383,6.49414 -17.73926,0 -0.85449,-0.92285 16.64551,0 -4.58008,-5.16113 0,-35.61524 3.79394,-3.75976 z"
         style="font-size:70px;font-family:Algerian;-inkscape-font-specification:Algerian"
         id="path3095" />
      <path
         d="m 403.57352,396.42676 c 5.42317,-3.57743 11.50714,-5.36617 18.25195,-5.36621 4.89906,4e-5 8.89808,1.09949 11.99707,3.29834 3.09892,2.19893 4.6484,5.04154 4.64844,8.52783 -4e-5,4.64847 -2.68884,7.75882 -8.06641,9.33105 l 0,0.37598 c 0.54685,0.13674 1.20765,0.31904 1.98242,0.54687 2.52927,-0.59242 4.51738,-1.8001 5.96436,-3.62304 1.4469,-1.82289 2.17037,-4.02178 2.17041,-6.59668 -4e-5,-3.23564 -1.33305,-6.10673 -3.99902,-8.61328 l 0,-0.20508 0.37597,0.30762 c 2.98499,2.30147 4.4775,5.25231 4.47754,8.85254 -4e-5,4.96747 -2.57491,8.43101 -7.72461,10.39062 2.23304,1.02541 3.97051,2.48375 5.2124,4.375 1.24183,1.89129 1.86276,4.02183 1.8628,6.3916 -4e-5,3.39519 -1.23051,6.11248 -3.69141,8.15186 -2.46097,2.03939 -5.74222,3.05908 -9.84375,3.05908 l -24.47266,0 4.7168,-4.0332 0,-14.79981 c -1.3444,2e-5 -2.91667,0.13674 -4.7168,0.41016 l -0.27343,-0.99121 c 2.02799,-0.20506 3.6914,-0.3076 4.99023,-0.30762 l 0,-1.81152 -0.85449,0 c -1.27605,2e-5 -2.88249,0.0912 -4.81934,0.27343 l 1.50391,-3.28125 0.54687,0.0342 c 0.88867,0.0684 1.56087,0.10257 2.01661,0.10254 0.68358,3e-5 1.21907,0.0342 1.60644,0.10254 l 0,-12.85156 z m 10.69824,-0.5127 0,15.41504 c 0.25064,-0.0228 0.42154,-0.0342 0.51269,-0.0342 l 0.61524,0.0342 c 0.0911,3e-5 0.28482,3e-5 0.58105,0 l 0,-13.97949 c 1.95962,-0.91142 3.87368,-1.36715 5.74219,-1.36719 2.14191,4e-5 3.8338,0.38741 5.07568,1.16211 1.24184,0.77478 2.29571,2.09639 3.16163,3.96484 l -0.95704,-0.54687 c -1.70901,-2.57483 -4.14715,-3.86226 -7.31445,-3.8623 -1.77736,4e-5 -3.37241,0.50134 -4.78516,1.5039 l 0,13.125 1.43555,0 c 4.35219,3e-5 7.59356,-0.72344 9.72412,-2.17041 2.13051,-1.44691 3.19577,-3.66289 3.1958,-6.64795 -3e-5,-2.6204 -0.883,-4.73384 -2.64892,-6.34033 -1.76598,-1.6064 -4.0845,-2.40962 -6.95557,-2.40967 -2.52931,5e-5 -4.99025,0.71782 -7.38281,2.15332 z m 0,18.21778 0,18.833 1.70898,0 0,-16.78222 c 1.61783,-0.11391 2.77993,-0.17088 3.48633,-0.1709 3.78253,2e-5 6.5226,0.35321 8.22022,1.05957 1.69756,0.7064 3.04766,2.0508 4.05029,4.0332 l -0.41016,0 c -1.11656,-1.57224 -2.51793,-2.6603 -4.2041,-3.26416 -1.68622,-0.60382 -4.15855,-0.90574 -7.41699,-0.90576 l -2.80274,0.0684 0,15.96191 1.09375,0 4.95606,-0.17089 c 6.42575,-0.45573 9.63864,-3.57747 9.63867,-9.36524 -3e-5,-3.62303 -1.0596,-6.10105 -3.17871,-7.43408 -2.11917,-1.33299 -6.08401,-1.99949 -11.89453,-1.99951 -0.56968,2e-5 -1.65203,0.0456 -3.24707,0.13672 z m 25.60058,2.39257 c 2.43811,1.8913 3.65719,4.76239 3.65723,8.61329 -4e-5,3.8737 -1.35583,7.0752 -4.06738,9.60449 -2.64327,2.46094 -6.52835,3.6914 -11.65527,3.6914 l -23.24219,0 -0.58106,-0.92285 21.56739,0 c 4.69398,0 8.07776,-0.47851 10.15136,-1.43554 4.60283,-2.14193 6.90426,-5.86751 6.9043,-11.17676 -4e-5,-2.96223 -1.04822,-5.65102 -3.14453,-8.06641 z"
         style="font-size:70px;font-family:Algerian;-inkscape-font-specification:Algerian"
         id="path3097" />
      <path
         d="m 479.58914,391.77832 -3.55469,4.0332 5.60547,14.90235 1.36719,-0.75196 -5.05859,-13.46679 3.62304,-4.16992 0.88868,0.37597 -3.45215,3.99903 4.78515,12.74902 c 0.2734,-0.20505 0.43291,-0.33038 0.47852,-0.37598 l 1.12793,-0.95703 c 0.68355,-0.54684 1.1165,-0.93421 1.29883,-1.16211 0.5924,2.59769 1.50386,4.9219 2.73437,6.97266 -0.66085,-0.0455 -1.13936,-0.0683 -1.43555,-0.0684 -2.16475,2e-5 -3.74841,0.34182 -4.75097,1.02539 l 6.18652,16.78223 5.12695,3.96484 -17.26074,0 4.7168,-3.96484 -3.79395,-9.98047 c -2.50654,2.52931 -4.43199,4.93328 -5.77636,7.21191 l -0.78614,-0.20508 c 1.34438,-2.23306 3.34959,-4.72817 6.01563,-7.48535 l 0.27344,-0.3418 -0.64942,-1.5039 c -2.71161,2.25587 -4.95608,4.87631 -6.7334,7.86133 l -0.61523,-0.99121 c -1.18492,-1.89127 -2.70022,-4.04458 -4.5459,-6.45997 l -0.3418,-0.41015 c -1.75457,3.8965 -2.63185,7.06381 -2.63183,9.50195 -2e-5,1.43556 0.24494,2.64893 0.73486,3.64014 0.48989,0.99121 1.66909,2.64893 3.5376,4.97314 0.15948,0.20508 0.41014,0.52409 0.75195,0.95703 l -18.45703,0 -0.68359,-0.92285 17.39746,0 -0.58106,-0.71777 c -1.50392,-1.82291 -2.48943,-3.24137 -2.95654,-4.25537 -0.46714,-1.01399 -0.7007,-2.20458 -0.70068,-3.57178 -2e-5,-2.32421 0.94562,-5.78774 2.83691,-10.39062 l -1.5039,-1.57227 c -0.29624,0.72919 -0.67222,1.80015 -1.12793,3.21289 l -1.12793,3.48633 c -0.61525,1.8685 -0.92287,3.41798 -0.92286,4.64844 -10e-6,1.27605 0.21646,2.33562 0.64942,3.17871 0.43293,0.8431 1.34438,1.99382 2.73437,3.45215 0.13671,0.13672 0.34178,0.35319 0.61524,0.64941 l -17.08985,0 c 3.25846,-1.68619 5.83903,-3.95344 7.7417,-6.80176 1.90266,-2.84829 3.78824,-7.24608 5.65674,-13.19336 l 0.13672,-0.47851 c -1.20769,-1.02537 -2.95086,-1.652 -5.22949,-1.87989 1.25324,-1.86846 2.22167,-3.8167 2.90527,-5.84472 0.319,0.29625 0.51269,0.47854 0.58106,0.54687 l 1.53808,1.43555 c 0.52408,0.50133 1.1507,1.01402 1.87988,1.53808 l 0.61524,-1.5039 -0.41016,-0.3418 c -1.13933,-1.00257 -2.09636,-1.81149 -2.87109,-2.42676 l -0.30762,-0.23925 0.54688,-0.75196 c 1.20767,0.79756 2.36977,1.72041 3.48633,2.76856 l 4.64843,-12.78321 -3.62304,-3.89648 z m -8.44238,10.97168 -3.75977,9.91211 c 0.20506,0.22789 0.31899,0.36461 0.3418,0.41016 l 1.40137,1.57226 c 0.75193,0.82034 1.70896,2.09638 2.87109,3.82813 l 0.3418,0.51269 c 0.97979,-1.23045 2.1419,-2.44952 3.48633,-3.65723 z m -1.53809,-3.96484 -5.43457,14.35546 c 1.73175,1.77737 3.22427,3.53193 4.47754,5.26368 l 1.57227,2.1875 c 0.0228,0.0228 0.13669,0.17091 0.34179,0.44433 0.20506,-0.20506 0.31899,-0.33038 0.3418,-0.37597 l 0.47852,-0.58106 c 0.0683,-0.0911 0.19366,-0.23924 0.37597,-0.44433 -1.59507,-2.46092 -3.45217,-4.6826 -5.57129,-6.66504 l 4.375,-11.55274 z m 20.09766,9.80957 c 0.50126,2.05081 1.75451,4.86493 3.75976,8.44238 -0.50134,-0.0683 -0.78617,-0.10252 -0.85449,-0.10254 l -2.76855,-0.23926 c -1.2533,-0.11391 -2.16476,-0.17087 -2.73438,-0.1709 -0.0912,3e-5 -0.31905,0.0114 -0.68359,0.0342 l 5.70801,15.14161 7.62207,6.73339 -19.79004,0 -0.64942,-0.92285 18.14942,0 -6.15235,-5.43457 -6.08398,-16.09863 c 0.7747,-0.20506 1.66337,-0.3076 2.66602,-0.30762 1.23042,2e-5 2.59761,0.10256 4.10156,0.30762 l -0.41016,-0.75195 c -1.45837,-2.68878 -2.43819,-5.11554 -2.93945,-7.28028 z"
         style="font-size:70px;font-family:Algerian;-inkscape-font-specification:Algerian"
         id="path3099" />
      <path
         d="m 502.59207,395.87988 c 5.40038,-3.1217 11.21092,-4.68257 17.43164,-4.68261 4.83071,4e-5 8.81264,1.04822 11.9458,3.14453 3.13311,2.09639 4.69967,4.76241 4.69971,7.99804 -4e-5,2.64327 -1.02543,4.98457 -3.07617,7.02393 -2.05082,2.03941 -4.85355,3.51484 -8.40821,4.42627 1.57224,4.32945 3.70847,8.54494 6.4087,12.64648 2.70016,4.10157 5.40605,7.2461 8.11767,9.4336 l -0.51269,0.1709 c -3.39522,1.16211 -6.72204,2.80273 -9.98047,4.92187 l -0.5127,0.3418 -0.1709,-1.09375 c -1.45836,-8.81835 -3.49774,-16.29231 -6.11816,-22.42188 l -0.13672,-0.34179 c -1.57229,0.72918 -3.68003,1.31024 -6.32324,1.74316 l -0.27344,0.0342 0,12.7832 6.01563,6.42578 -17.6709,0 -0.54688,-0.92285 16.26953,0 -4.95605,-5.26367 0,-13.77441 0.71777,-0.10254 c 2.59764,-0.27342 4.77375,-0.78611 6.52832,-1.53809 -0.13674,-0.27341 -0.21649,-0.44431 -0.23925,-0.51269 l -0.3418,-0.99122 c -0.0228,-0.0683 -0.0798,-0.20505 -0.1709,-0.41015 -1.41278,0.41018 -4.07879,0.85451 -7.99805,1.33301 l -0.37597,0.0684 0,15.24414 3.89648,4.06738 -15.10742,0 4.44336,-4.06738 0,-11.48438 -0.27344,0.0342 c -1.32162,0.29624 -2.51791,0.62665 -3.58887,0.99121 l -0.27343,0.10254 -0.30762,-0.68359 c 1.0026,-0.38735 1.78873,-0.6494 2.3584,-0.78614 l 1.81152,-0.44433 0.27344,-0.0684 0,-1.77734 c -1.34441,2e-5 -3.01921,0.29624 -5.02442,0.88867 l -0.37597,0.13672 c 0.0456,-0.31899 0.27343,-1.05955 0.68359,-2.22168 0.0456,-0.0911 0.20508,-0.60382 0.47852,-1.53809 0.0228,-0.0683 0.057,-0.17087 0.10254,-0.30762 1.02538,0.0684 1.82291,0.10257 2.39257,0.10254 0.61523,3e-5 1.18489,-0.0342 1.70899,-0.10254 l 0,-16.8164 c -1.04818,-0.63798 -2.13054,-1.17346 -3.24707,-1.60645 z m 10.32227,-0.88867 0,18.42285 c 0.66079,3e-5 1.28742,-0.0569 1.87988,-0.1709 l 0,-16.8164 c 1.25324,-0.34176 2.75714,-0.51265 4.51172,-0.5127 4.44333,5e-5 7.46254,1.45838 9.05762,4.375 -1.68623,-1.36715 -3.16735,-2.30709 -4.44336,-2.81982 -1.27607,-0.51266 -2.80276,-0.769 -4.58008,-0.76904 -1.38999,4e-5 -2.60907,0.13676 -3.65723,0.41015 l 0,16.13281 0.37598,-0.0684 c 4.48891,-0.82028 7.82143,-2.11341 9.99756,-3.87939 2.17608,-1.76592 3.26413,-4.06165 3.26416,-6.88721 -3e-5,-2.52926 -0.97985,-4.61991 -2.93946,-6.27197 -1.95966,-1.65197 -4.43198,-2.47798 -7.41699,-2.47803 -2.39259,5e-5 -4.40919,0.44438 -6.0498,1.33301 z m 16.50879,20.50781 c 1.43551,4.69403 3.9762,9.2855 7.62207,13.77442 2.2786,2.80274 5.16109,5.32064 8.64746,7.55371 -5.21814,1.38997 -10.11723,3.50911 -14.69727,6.35742 l -0.30762,0.20508 -0.68359,-0.54688 c 4.35218,-2.84831 8.98922,-4.94466 13.91113,-6.28906 -6.56253,-4.37499 -11.72366,-11.37043 -15.48339,-20.98633 l -0.20508,-0.58105 c 6.97262,-2.6432 10.45894,-6.6764 10.45898,-12.09961 -4e-5,-2.23304 -0.9001,-4.67118 -2.70019,-7.31445 2.30139,2.09639 3.4521,4.7624 3.45214,7.99804 -4e-5,5.24092 -3.33825,9.21715 -10.01464,11.92871 z"
         style="font-size:70px;font-family:Algerian;-inkscape-font-specification:Algerian"
         id="path3101" />
    </g>
    <path
       style="fill:none;stroke:#000000;stroke-width:4;stroke-linecap:butt;stroke-linejoin:miter;stroke-miterlimit:4;stroke-opacity:1;stroke-dasharray:none"
       d="m 211.35105,383.07647 329.4505,-0.35715"
       id="path3859"
       inkscape:connector-curvature="0" />
    <path
       style="fill:none;stroke:#000000;stroke-width:4;stroke-linecap:butt;stroke-linejoin:miter;stroke-miterlimit:4;stroke-opacity:1;stroke-dasharray:none"
       d="m 210.63676,446.46933 329.4505,-0.35715"
       id="path3859-4"
       inkscape:connector-curvature="0" />
    <path
       style="fill:#000000;fill-opacity:1;stroke:#000000;stroke-width:1.12681556px;stroke-linecap:butt;stroke-linejoin:miter;stroke-opacity:1"
       d="m 228.42522,458.43361 10.88326,10.71429 -10.42979,11.78571 293.84795,0 -10.42978,-11.07143 9.97631,-10.71428 z"
       id="path3879"
       inkscape:connector-curvature="0" />
    <path
       style="fill:none;stroke:#000000;stroke-width:4;stroke-linecap:round;stroke-linejoin:miter;stroke-miterlimit:10;stroke-opacity:1;stroke-dasharray:none"
       d="m 430.29993,346.99672 c 8.72302,-8.89513 21.58935,3.20471 20.03023,13.39144 -0.21352,12.53376 -17.78477,16.4153 -26.19748,9.10331 -11.45586,-8.47494 -12.15019,-29.05347 0.80451,-36.47741 9.0472,-7.88882 23.14877,-4.61304 30.50884,3.96592 7.89588,7.34956 10.02045,18.59295 16.39542,26.89992 6.40177,5.97483 17.58648,7.37436 24.22619,0.9974"
       id="path2997-8"
       inkscape:connector-curvature="0" />
    <path
       style="fill:none;stroke:#000000;stroke-width:4;stroke-linecap:round;stroke-linejoin:miter;stroke-miterlimit:10;stroke-opacity:1;stroke-dasharray:none"
       d="m 510.65707,348.24672 c -5.47591,12.69365 -23.20932,20.04529 -35.10832,11.53318"
       id="path3030-2"
       inkscape:connector-curvature="0" />
    <path
       style="fill:none;stroke:#000000;stroke-width:4;stroke-linecap:round;stroke-linejoin:miter;stroke-miterlimit:10;stroke-opacity:1;stroke-dasharray:none"
       d="m 503.22615,348.61326 c -3.66221,7.66452 -13.86352,11.27526 -21.53741,7.64901"
       id="path3030-1-4"
       inkscape:connector-curvature="0" />
    <path
       sodipodi:type="arc"
       style="fill:none;stroke:#ffffff;stroke-width:3.85868239;stroke-linecap:round;stroke-linejoin:round;stroke-miterlimit:4;stroke-opacity:1;stroke-dasharray:none;stroke-dashoffset:0"
       id="path3053-1"
       sodipodi:cx="336.88586"
       sodipodi:cy="307.37469"
       sodipodi:rx="27.274118"
       sodipodi:ry="26.263966"
       d="m 364.15998,307.37469 c 0,14.50519 -12.21104,26.26397 -27.27412,26.26397 -15.06308,0 -27.27411,-11.75878 -27.27411,-26.26397 0,-14.50518 12.21103,-26.26396 27.27411,-26.26396 14.99738,0 27.18103,11.6602 27.2736,26.10184"
       sodipodi:start="0"
       sodipodi:end="6.2770125"
       sodipodi:open="true"
       transform="matrix(0.86718577,0,0,0.91666567,79.128112,69.173793)" />
    <g
       transform="scale(1.1453156,0.87312179)"
       style="font-size:48.46021652px;font-style:normal;font-variant:normal;font-weight:normal;font-stretch:normal;line-height:125%;letter-spacing:0px;word-spacing:0px;fill:#f9f9f9;fill-opacity:1;stroke:none;font-family:Arial;-inkscape-font-specification:Arial"
       id="text3960">
      <path
         d="m 335.85827,385.64377 -0.26028,0.44958 c -1.41976,2.47668 -2.65019,4.95332 -3.69131,7.42994 l -0.21296,0.54423 -0.30761,-0.16563 c -0.36284,-2.39775 -1.20679,-4.29861 -2.53185,-5.7026 -1.3251,-1.40393 -2.92625,-2.1059 -4.80343,-2.10594 -2.00341,4e-5 -3.67554,0.87554 -5.01639,2.62651 -1.68791,2.17695 -2.53187,5.86825 -2.53186,11.07392 -1e-5,4.48006 0.7769,7.98995 2.33073,10.52968 1.55381,2.53975 3.71101,3.80962 6.47162,3.80962 2.20845,0 3.97128,-0.73747 5.2885,-2.21242 1.31718,-1.47494 2.10197,-3.58481 2.35439,-6.32964 0.0631,-0.66253 0.33125,-0.9938 0.80452,-0.99381 0.61519,10e-6 0.9228,0.51269 0.92282,1.53804 -2e-5,1.53017 -0.34707,3.11553 -1.04113,4.75611 -1.46708,3.47046 -4.49584,5.20568 -9.0863,5.20568 -4.10146,0 -7.35895,-1.43945 -9.77249,-4.31835 -2.41355,-2.8789 -3.62032,-6.77133 -3.62032,-11.6773 0,-4.52735 1.2541,-8.32119 3.76229,-11.38153 2.50819,-3.06028 5.62371,-4.59044 9.34658,-4.59047 1.76676,3e-5 3.77805,0.43384 6.03386,1.30142 1.18309,0.4575 2.16113,0.68624 2.93412,0.68621 0.83604,3e-5 1.58534,-0.22871 2.24791,-0.68621 z m -6.86204,4.09357 c -1.43552,-1.15154 -2.79216,-1.72732 -4.0699,-1.72735 -4.08569,3e-5 -6.12852,3.89641 -6.12851,11.68914 -10e-6,3.54934 0.47323,6.50317 1.41973,8.8615 0.94648,2.35834 2.27945,3.88455 3.99891,4.57864 l 0,0.23662 c -1.86144,-0.37859 -3.34821,-1.81016 -4.46032,-4.29469 -1.11214,-2.48453 -1.6682,-5.62765 -1.66819,-9.4294 -10e-6,-8.15555 2.24001,-12.23333 6.72007,-12.23336 1.51436,3e-5 2.91043,0.67046 4.18821,2.01129 z m 7.71388,16.25594 c -0.25242,3.91216 -1.34482,6.88965 -3.27721,8.93248 -1.93244,2.04284 -4.63387,3.06426 -8.10431,3.06426 -2.63441,0 -5.08739,-0.8124 -7.35895,-2.43721 l 0,-0.1893 c 2.01916,1.32509 4.45637,1.98763 7.31162,1.98763 3.1234,0 5.67103,-1.0017 7.6429,-3.0051 0.96224,-0.97803 1.6721,-2.07438 2.1296,-3.28905 0.45744,-1.21465 0.76505,-2.82368 0.92282,-4.82709 l 0.0473,-0.54423 z m 0.87551,-19.21372 -0.26029,0.44958 c -1.71948,2.93414 -3.09189,5.60797 -4.11722,8.02149 l -0.63888,-0.30761 0.26028,-0.59155 c 0.78872,-1.65633 1.48281,-3.02874 2.08227,-4.11723 l 1.89298,-3.36003 0.23662,-0.42592 z"
         style="fill:#f9f9f9;font-family:Algerian;-inkscape-font-specification:Algerian"
         id="path3086" />
    </g>
    <path
       sodipodi:type="arc"
       style="fill:#f9f9f9;fill-opacity:1;fill-rule:nonzero;stroke:#ffffff;stroke-width:3.5;stroke-linecap:round;stroke-linejoin:round;stroke-miterlimit:4;stroke-opacity:1;stroke-dasharray:none;stroke-dashoffset:0"
       id="path4224"
       sodipodi:cx="121.78571"
       sodipodi:cy="194.1479"
       sodipodi:rx="11.785714"
       sodipodi:ry="11.785714"
       d="m 133.57143,194.1479 c 0,6.50907 -5.27665,11.78572 -11.78572,11.78572 -6.50907,0 -11.78571,-5.27665 -11.78571,-11.78572 0,-6.50907 5.27664,-11.78571 11.78571,-11.78571 6.48068,0 11.74549,5.23241 11.78549,11.71296"
       sodipodi:start="0"
       sodipodi:end="6.2770125"
       sodipodi:open="true"
       transform="matrix(0.57783641,0,0,0.57783641,184.27064,356.96217)" />
    <path
       sodipodi:type="arc"
       style="fill:#f9f9f9;fill-opacity:1;fill-rule:nonzero;stroke:#ffffff;stroke-width:3.5;stroke-linecap:round;stroke-linejoin:round;stroke-miterlimit:4;stroke-opacity:1;stroke-dasharray:none;stroke-dashoffset:0"
       id="path4224-2"
       sodipodi:cx="121.78571"
       sodipodi:cy="194.1479"
       sodipodi:rx="11.785714"
       sodipodi:ry="11.785714"
       d="m 133.57143,194.1479 c 0,6.50907 -5.27665,11.78572 -11.78572,11.78572 -6.50907,0 -11.78571,-5.27665 -11.78571,-11.78572 0,-6.50907 5.27664,-11.78571 11.78571,-11.78571 6.48068,0 11.74549,5.23241 11.78549,11.71296"
       sodipodi:start="0"
       sodipodi:end="6.2770125"
       sodipodi:open="true"
       transform="matrix(0.57783641,0,0,0.57783641,426.05635,356.96217)" />
    <g
       transform="scale(0.97636428,1.0242079)"
       style="font-size:27.33819962px;font-style:normal;font-variant:normal;font-weight:normal;font-stretch:normal;line-height:125%;letter-spacing:0px;word-spacing:0px;fill:#ffffff;fill-opacity:1;stroke:none;font-family:Arial;-inkscape-font-specification:Arial"
       id="text4244">
      <path
         d="m 290.72876,459.3361 c -0.31147,0.15892 -0.4672,0.34326 -0.4672,0.55302 0,0.34961 0.44813,0.52442 1.34441,0.52442 l 0.72464,0 1.13464,-0.0191 0.93442,0 c 2.38369,0 3.57554,0.89309 3.57555,2.67928 -10e-6,1.04883 -0.4847,1.87994 -1.45406,2.49335 -0.96938,0.6134 -2.28677,0.92011 -3.95218,0.92011 -1.25224,0 -2.26611,-0.20659 -3.0416,-0.61976 -0.7755,-0.41318 -1.16325,-0.94077 -1.16325,-1.58278 0,-0.3369 0.16527,-0.72783 0.49581,-1.17278 -0.35596,-0.41318 -0.53395,-0.85814 -0.53395,-1.33488 0,-1.0234 0.6579,-1.87517 1.97371,-2.55532 -1.4048,-0.54666 -2.10719,-1.32852 -2.10719,-2.34557 0,-0.85177 0.41158,-1.5494 1.23475,-2.09289 0.82317,-0.54347 1.92762,-0.81522 3.31335,-0.81522 0.4958,0 0.96619,0.0477 1.41115,0.14302 0.17798,-0.61658 0.47356,-1.10603 0.88674,-1.46836 0.41317,-0.36231 0.85177,-0.54348 1.3158,-0.54349 0.33053,1e-5 0.60227,0.0969 0.81523,0.29082 0.21293,0.19388 0.3194,0.44655 0.31941,0.75801 -1e-5,0.30513 -0.10648,0.56098 -0.31941,0.76756 -0.21296,0.20659 -0.47834,0.30988 -0.79616,0.30988 -0.31148,0 -0.56256,-0.0906 -0.75325,-0.27175 -0.1907,-0.18115 -0.28605,-0.41793 -0.28604,-0.71034 -10e-6,-0.13983 0.0222,-0.24154 0.0667,-0.30511 l -0.0381,-0.0381 c -0.41318,0.26698 -0.7024,0.68969 -0.86767,1.26813 2.24385,0.50217 3.36578,1.43976 3.36579,2.81277 -10e-6,0.92805 -0.47993,1.6082 -1.43976,2.04045 -0.95984,0.43224 -2.04363,0.64836 -3.25136,0.64836 -0.88357,0 -1.6972,-0.11123 -2.44092,-0.33372 z m 3.10835,-0.91534 0,-3.18462 c 0,-0.59751 -0.24155,-0.89627 -0.72464,-0.89628 -0.55938,1e-5 -0.83907,0.29877 -0.83907,0.89628 l 0,3.18462 c 0,0.63566 0.26697,0.95349 0.80093,0.95348 0.50851,1e-5 0.76278,-0.31782 0.76278,-0.95348 z m -4.71019,4.91996 c -0.11442,0.1907 -0.17163,0.40682 -0.17163,0.64837 0,0.59116 0.36391,1.08379 1.09174,1.4779 0.72782,0.3941 1.66382,0.59115 2.808,0.59115 0.87084,0 1.54781,-0.11601 2.03091,-0.34802 0.48309,-0.23201 0.72464,-0.55143 0.72465,-0.95825 -10e-6,-0.27969 -0.11602,-0.51329 -0.34802,-0.7008 -0.23203,-0.18752 -0.8057,-0.28128 -1.72104,-0.28128 l -2.47905,0.10488 c -0.85813,0 -1.50332,-0.17798 -1.93556,-0.53395 z"
         style="font-size:19.52728653px;fill:#ffffff;font-family:Bodoni MT Black;-inkscape-font-specification:Bodoni MT Black"
         id="path3104" />
      <path
         d="m 308.50165,458.02984 -5.08206,0 0,1.69719 c 0,0.54031 0.0318,0.92488 0.0953,1.15371 0.0636,0.22884 0.18751,0.41636 0.37186,0.56256 0.18433,0.1462 0.41317,0.2193 0.68651,0.2193 0.57208,0 1.17118,-0.1907 1.79731,-0.57209 0.62611,-0.38139 1.18071,-0.89945 1.66382,-1.55418 l 0.30511,0.33372 c -1.22682,1.61456 -2.71107,2.42184 -4.45275,2.42184 -1.44294,0 -2.64591,-0.38616 -3.60893,-1.15847 -0.96301,-0.77232 -1.44452,-1.72739 -1.44452,-2.86521 0,-1.22046 0.49104,-2.24227 1.47313,-3.06545 0.98208,-0.82316 2.21048,-1.23475 3.6852,-1.23475 1.15053,0 2.14374,0.36392 2.97963,1.09173 0.83587,0.72783 1.34599,1.71786 1.53034,2.9701 z m -3.27998,-0.39093 0,-2.25975 c 0,-0.69286 -0.28605,-1.03929 -0.85813,-1.0393 -0.6293,1e-5 -0.94395,0.34644 -0.94395,1.0393 l 0,2.25975 z"
         style="font-size:19.52728653px;fill:#ffffff;font-family:Bodoni MT Black;-inkscape-font-specification:Bodoni MT Black"
         id="path3106" />
      <path
         d="m 316.406,459.22169 c -0.40047,1.22045 -0.88833,2.01025 -1.46359,2.3694 -0.57527,0.35914 -1.26972,0.53871 -2.08336,0.53871 -1.7989,0 -2.69835,-0.69604 -2.69835,-2.08812 l 0,-5.54926 -0.95348,0 0,-0.38139 c 1.09968,-0.10805 2.13739,-0.58797 3.11312,-1.43976 0.97572,-0.85176 1.55893,-1.66858 1.74964,-2.45044 l 0.42906,0 0,3.8902 1.26813,0 0,0.38139 -1.26813,0 0,5.19647 c 0,0.45132 0.0238,0.73736 0.0715,0.85813 0.0477,0.12078 0.13507,0.18117 0.26221,0.18117 0.3496,0 0.70557,-0.54031 1.0679,-1.62092 z"
         style="font-size:19.52728653px;fill:#ffffff;font-family:Bodoni MT Black;-inkscape-font-specification:Bodoni MT Black"
         id="path3108" />
      <path
         d="m 332.11937,460.41354 c -0.46404,0.66108 -0.99322,1.13941 -1.58755,1.43499 -0.59434,0.29557 -1.32058,0.44336 -2.1787,0.44336 -1.49379,0 -2.68723,-0.37185 -3.58032,-1.11557 -0.8931,-0.74371 -1.33964,-1.7258 -1.33964,-2.94625 0,-1.23317 0.49422,-2.2518 1.48266,-3.05591 0.98844,-0.80409 2.24544,-1.20615 3.77101,-1.20615 1.03611,0 1.84498,0.20024 2.42661,0.60069 0.58162,0.40047 0.87243,0.95031 0.87244,1.64952 -1e-5,0.44496 -0.14303,0.80888 -0.42907,1.09174 -0.28605,0.28287 -0.65791,0.4243 -1.11557,0.4243 -0.45768,0 -0.83589,-0.13667 -1.13464,-0.41 -0.29877,-0.27333 -0.44814,-0.62294 -0.44814,-1.04883 0,-0.41952 0.1303,-0.77549 0.39093,-1.0679 0.26061,-0.29239 0.57526,-0.43859 0.94394,-0.4386 0.18434,10e-6 0.34643,0.0191 0.48628,0.0572 l 0.0381,-0.0381 c -0.33055,-0.27332 -0.87085,-0.40999 -1.62092,-0.41 -0.40682,1e-5 -0.68492,0.0827 -0.83429,0.24791 -0.14939,0.16528 -0.22408,0.46721 -0.22407,0.90581 l 0,4.66252 c -1e-5,0.59751 0.0763,1.00433 0.22883,1.22045 0.15255,0.21612 0.46085,0.32419 0.92488,0.32419 0.44495,0 0.89785,-0.13508 1.35871,-0.40523 0.46084,-0.27016 0.86925,-0.64996 1.22522,-1.13941 z"
         style="font-size:19.52728653px;fill:#ffffff;font-family:Bodoni MT Black;-inkscape-font-specification:Bodoni MT Black"
         id="path3110" />
      <path
         d="m 343.82811,460.50889 c -0.57846,1.18867 -1.63682,1.783 -3.17509,1.783 -0.83907,0 -1.54465,-0.27968 -2.11673,-0.83906 -0.88992,0.55938 -1.77983,0.83906 -2.66974,0.83906 -0.92171,0 -1.6829,-0.21771 -2.28359,-0.65313 -0.60069,-0.43542 -0.90104,-0.98049 -0.90104,-1.63522 0,-0.74371 0.31465,-1.32692 0.94395,-1.74964 0.62929,-0.4227 1.49378,-0.63406 2.59346,-0.63406 0.84542,0 1.58595,0.10489 2.22161,0.31465 l 0,-1.89743 c 0,-0.51487 -0.0636,-0.86607 -0.19069,-1.0536 -0.12714,-0.18751 -0.32101,-0.32894 -0.58163,-0.4243 -0.26062,-0.0953 -0.54984,-0.14301 -0.86766,-0.14302 -0.40047,1e-5 -0.69923,0.0477 -0.89628,0.14302 0.68651,0.20342 1.02976,0.65791 1.02976,1.36348 0,0.47039 -0.13984,0.84543 -0.41953,1.12511 -0.27969,0.27969 -0.65155,0.41954 -1.11557,0.41953 -0.48946,10e-6 -0.88515,-0.14302 -1.18708,-0.42906 -0.30194,-0.28604 -0.45291,-0.6579 -0.45291,-1.11558 0,-0.62293 0.30353,-1.10444 0.91058,-1.44452 0.60704,-0.34007 1.46676,-0.51011 2.57916,-0.51011 1.18231,0 2.15168,0.0826 2.90812,0.2479 0.75642,0.16528 1.31262,0.37346 1.66859,0.62453 0.35596,0.25109 0.60068,0.51489 0.73418,0.79139 0.13348,0.27652 0.20022,0.70399 0.20023,1.28243 l 0,3.59463 c -10e-6,0.19705 0.008,0.32736 0.0238,0.39092 0.0159,0.0636 0.0588,0.0953 0.12872,0.0953 0.12076,0 0.31146,-0.2193 0.57209,-0.6579 z m -5.38717,0.59115 0,-2.73649 c -0.40682,-0.15891 -0.72465,-0.23836 -0.95348,-0.23837 -0.25426,10e-6 -0.43542,0.0636 -0.54348,0.1907 -0.10807,0.12713 -0.1621,0.3369 -0.16209,0.6293 l 0,1.76394 c -10e-6,0.53395 0.19387,0.80092 0.58162,0.80092 0.22883,0 0.58797,-0.13667 1.07743,-0.41 z"
         style="font-size:19.52728653px;fill:#ffffff;font-family:Bodoni MT Black;-inkscape-font-specification:Bodoni MT Black"
         id="path3112" />
      <path
         d="m 351.98991,457.15263 c -0.13986,-0.9789 -0.57846,-1.69242 -1.31581,-2.14056 -0.73736,-0.44813 -1.4779,-0.6722 -2.22161,-0.67221 -0.21612,1e-5 -0.39093,0.0461 -0.52441,0.13826 -0.13349,0.0922 -0.20024,0.20818 -0.20023,0.34802 -10e-6,0.15892 0.0699,0.294 0.20976,0.40523 0.13984,0.11125 0.35279,0.23679 0.63883,0.37662 1.20138,0.61024 2.02456,1.04407 2.46952,1.30151 0.44495,0.25744 0.7882,0.49263 1.02976,0.70557 0.24154,0.21295 0.42747,0.48151 0.55778,0.80569 0.13031,0.32419 0.19546,0.67062 0.19547,1.0393 -1e-5,0.85813 -0.34008,1.54464 -1.02023,2.05951 -0.68015,0.51488 -1.59549,0.77232 -2.74602,0.77232 -1.32216,0 -2.46316,-0.30829 -3.423,-0.92487 l -1.24906,0.98208 0,-3.65183 0.41,0 c 0.0826,0.90263 0.48151,1.62251 1.19662,2.15964 0.71511,0.53712 1.5939,0.80569 2.63637,0.80569 0.57209,0 0.85813,-0.21295 0.85814,-0.63884 -10e-6,-0.17798 -0.0588,-0.32259 -0.1764,-0.43383 -0.1176,-0.11124 -0.32578,-0.21453 -0.62453,-0.30988 -1.57007,-0.5403 -2.66975,-1.09491 -3.29904,-1.66382 -0.6293,-0.56891 -0.94395,-1.18708 -0.94395,-1.85452 0,-0.8772 0.34802,-1.60026 1.04406,-2.16917 0.69604,-0.56891 1.57801,-0.85336 2.64591,-0.85337 0.88991,10e-6 1.82115,0.26698 2.7937,0.80093 l 1.46836,-0.86767 0,3.4802 z"
         style="font-size:19.52728653px;fill:#ffffff;font-family:Bodoni MT Black;-inkscape-font-specification:Bodoni MT Black"
         id="path3114" />
      <path
         d="m 366.12049,462.03445 -6.21669,0 0,-0.39092 0.64836,0 0,-5.64461 c 0,-0.67379 -0.20977,-1.01068 -0.62929,-1.01069 -0.30512,1e-5 -0.64838,0.14939 -1.02976,0.44814 l 0,6.20716 0.66743,0 0,0.39092 -6.19762,0 0,-0.39092 1.19185,0 0,-12.00433 -1.19185,0 0,-0.39092 3.20369,0 c 0.88356,10e-6 1.65906,-0.0795 2.3265,-0.23837 l 0,5.95925 c 1.08696,-0.66743 2.17393,-1.00115 3.2609,-1.00115 0.88991,0 1.57482,0.2352 2.05475,0.70557 0.47991,0.47039 0.71987,1.16008 0.71988,2.06906 l 0,4.90089 1.19185,0 z"
         style="font-size:19.52728653px;fill:#ffffff;font-family:Bodoni MT Black;-inkscape-font-specification:Bodoni MT Black"
         id="path3116" />
      <path
         d="m 376.58971,449.00991 c 0.53394,1e-5 0.95347,0.13191 1.25859,0.39569 0.30511,0.26381 0.45767,0.62772 0.45767,1.09174 0,0.47039 -0.26221,0.88992 -0.78662,1.25859 -0.52442,0.36869 -1.13623,0.55303 -1.83545,0.55302 -0.52124,1e-5 -0.94077,-0.12712 -1.2586,-0.38139 -0.31782,-0.25425 -0.47674,-0.58797 -0.47674,-1.00116 0,-0.52122 0.25903,-0.97095 0.77709,-1.34917 0.51806,-0.3782 1.13941,-0.56731 1.86406,-0.56732 z m 3.07974,13.02454 -6.89367,0 0,-0.39092 1.29674,0 0,-7.15111 -1.29674,0 0,-0.38139 3.22277,0 c 0.81363,10e-6 1.61455,-0.0858 2.40277,-0.25744 l 0,7.78994 1.26813,0 z"
         style="font-size:19.52728653px;fill:#ffffff;font-family:Bodoni MT Black;-inkscape-font-specification:Bodoni MT Black"
         id="path3118" />
      <path
         d="m 392.58912,462.03445 -6.19763,0 0,-0.39092 0.66744,0 0,-5.5874 c -10e-6,-0.66107 -0.19388,-0.99161 -0.58162,-0.99162 -0.31148,1e-5 -0.67062,0.18117 -1.07744,0.54348 l 0,6.03554 0.66744,0 0,0.39092 -6.21669,0 0,-0.39092 1.21092,0 0,-7.15111 -1.21092,0 0,-0.38139 3.63276,0 c 0.59751,10e-6 1.23634,-0.0858 1.91649,-0.25744 l 0,1.2872 c 1.0679,-0.78185 2.14215,-1.17278 3.22277,-1.17278 0.75006,0 1.40002,0.18752 1.94987,0.56255 0.54983,0.37504 0.82475,1.03294 0.82476,1.97371 l 0,5.13926 1.19185,0 z"
         style="font-size:19.52728653px;fill:#ffffff;font-family:Bodoni MT Black;-inkscape-font-specification:Bodoni MT Black"
         id="path3120" />
      <path
         d="m 409.24642,454.49242 c -0.36868,0.0636 -0.6738,0.20977 -0.91534,0.4386 -0.24155,0.22884 -0.50217,0.62295 -0.78185,1.18232 l -4.31927,8.53365 c -0.59752,1.17596 -1.31898,1.76394 -2.1644,1.76394 -0.54031,0 -0.98526,-0.17163 -1.33487,-0.51488 -0.34961,-0.34326 -0.52442,-0.77868 -0.52442,-1.30627 0,-0.54666 0.17322,-1.00115 0.51965,-1.36347 0.34643,-0.36233 0.78026,-0.54349 1.3015,-0.54349 0.47038,0 0.87243,0.13826 1.20615,0.41477 0.33372,0.2765 0.54189,0.65631 0.62453,1.1394 l 0.0381,0 1.17278,-2.27881 -4.27159,-7.46576 -0.51488,0 0,-0.38139 6.35018,0 0,0.38139 -0.81999,0 1.62092,2.85091 c 0.38774,-0.74371 0.60863,-1.20456 0.66267,-1.38255 0.054,-0.17798 0.081,-0.32735 0.081,-0.44813 -10e-6,-0.33689 -0.0969,-0.58003 -0.29081,-0.72942 -0.19388,-0.14937 -0.50058,-0.24631 -0.92011,-0.29081 l 0,-0.38139 3.27997,0 z"
         style="font-size:19.52728653px;fill:#ffffff;font-family:Bodoni MT Black;-inkscape-font-specification:Bodoni MT Black"
         id="path3122" />
      <path
         d="m 415.22475,453.96801 c 1.68447,0 3.02093,0.39729 4.00939,1.19185 0.98843,0.79457 1.48265,1.85611 1.48266,3.18462 -10e-6,1.20139 -0.49741,2.15964 -1.4922,2.87475 -0.99481,0.71511 -2.33445,1.07266 -4.01892,1.07266 -1.64635,0 -2.96851,-0.37026 -3.96648,-1.1108 -0.99798,-0.74054 -1.49697,-1.7115 -1.49697,-2.91288 0,-1.29038 0.49899,-2.32967 1.49697,-3.11789 0.99797,-0.7882 2.32649,-1.18231 3.98555,-1.18231 z m 0.88674,6.72204 0,-5.15833 c -1e-5,-0.45767 -0.0636,-0.77391 -0.1907,-0.94872 -0.12714,-0.1748 -0.35915,-0.2622 -0.69604,-0.26221 -0.33055,1e-5 -0.56256,0.0969 -0.69604,0.29082 -0.13349,0.19388 -0.20024,0.52601 -0.20023,0.99638 l 0,5.08206 c -1e-5,0.44496 0.062,0.75801 0.18593,0.93918 0.12394,0.18116 0.3353,0.27174 0.63406,0.27174 0.35596,0 0.60545,-0.0922 0.74848,-0.27651 0.14302,-0.18434 0.21453,-0.49581 0.21454,-0.93441 z"
         style="font-size:19.52728653px;fill:#ffffff;font-family:Bodoni MT Black;-inkscape-font-specification:Bodoni MT Black"
         id="path3124" />
      <path
         d="m 433.69368,462.03445 -5.42531,0 0,-1.01069 c -1.06155,0.84542 -2.15487,1.26813 -3.27997,1.26813 -0.69923,0 -1.30786,-0.15732 -1.82592,-0.47197 -0.51806,-0.31465 -0.77709,-0.89468 -0.77709,-1.7401 l 0,-5.5874 -1.01069,0 0,-0.38139 3.19416,0 c 0.64201,10e-6 1.3603,-0.0858 2.15487,-0.25744 l 0,6.09274 c 0,0.4386 0.0381,0.731 0.11442,0.8772 0.0763,0.14621 0.20658,0.21931 0.39093,0.2193 0.34324,1e-5 0.68967,-0.18433 1.03929,-0.55301 l 0,-5.9974 -1.0965,0 0,-0.38139 3.31811,0 c 0.71192,10e-6 1.42068,-0.0858 2.12626,-0.25744 l 0,7.78994 1.07744,0 z"
         style="font-size:19.52728653px;fill:#ffffff;font-family:Bodoni MT Black;-inkscape-font-specification:Bodoni MT Black"
         id="path3126" />
      <path
         d="m 439.672,456.01799 c 0.81999,-1.30308 1.65905,-1.95463 2.51719,-1.95464 0.47673,10e-6 0.85653,0.14621 1.13941,0.43861 0.28285,0.2924 0.42429,0.68651 0.4243,1.18231 -1e-5,0.52124 -0.16687,0.95826 -0.50058,1.31104 -0.33373,0.35279 -0.74531,0.52918 -1.23476,0.52918 -0.45768,0 -0.83589,-0.14461 -1.13464,-0.43383 -0.29876,-0.28922 -0.44814,-0.65313 -0.44814,-1.09174 0,-0.15255 0.0191,-0.27015 0.0572,-0.35279 l -0.0381,-0.0381 c -0.22884,0.21613 -0.42271,0.48311 -0.58162,0.80093 -0.15892,0.31783 -0.23838,0.54031 -0.23837,0.66743 l 0,4.56718 1.26813,0 0,0.39092 -6.81739,0 0,-0.39092 1.21092,0 0,-7.15111 -1.21092,0 0,-0.38139 3.18463,0 c 0.95347,10e-6 1.74168,-0.0858 2.36463,-0.25744 l 0,2.1644 z"
         style="font-size:19.52728653px;fill:#ffffff;font-family:Bodoni MT Black;-inkscape-font-specification:Bodoni MT Black"
         id="path3128" />
      <path
         d="m 456.22442,454.5401 c 1.01704,-0.38139 1.88153,-0.57209 2.59347,-0.57209 1.04246,0 1.90536,0.38934 2.5887,1.16801 0.68332,0.77868 1.02498,1.76236 1.02499,2.95102 -10e-6,1.20139 -0.37028,2.20255 -1.1108,3.00347 -0.74055,0.80092 -1.65748,1.20138 -2.7508,1.20138 -0.88992,0 -1.67177,-0.30193 -2.34556,-0.9058 l 0,0.88673 c -0.51488,-0.15891 -1.05519,-0.23837 -1.62092,-0.23837 l -3.92834,0 0,-0.39092 1.21092,0 0,-12.00433 -1.21092,0 0,-0.39092 2.77463,0 c 1.16324,10e-6 2.08812,-0.0795 2.77463,-0.23837 z m 1.6972,6.14995 0,-4.69113 c -1e-5,-0.8327 -0.29241,-1.24905 -0.87721,-1.24906 -0.2924,10e-6 -0.56573,0.0922 -0.81999,0.27651 l 0,5.81623 c 0.36867,0.36233 0.72782,0.54349 1.07743,0.54349 0.41317,0 0.61976,-0.23202 0.61977,-0.69604 z"
         style="font-size:19.52728653px;fill:#ffffff;font-family:Bodoni MT Black;-inkscape-font-specification:Bodoni MT Black"
         id="path3130" />
      <path
         d="m 474.3787,460.50889 c -0.57846,1.18867 -1.63682,1.783 -3.17509,1.783 -0.83907,0 -1.54465,-0.27968 -2.11673,-0.83906 -0.88992,0.55938 -1.77983,0.83906 -2.66974,0.83906 -0.9217,0 -1.6829,-0.21771 -2.28359,-0.65313 -0.60069,-0.43542 -0.90104,-0.98049 -0.90104,-1.63522 0,-0.74371 0.31465,-1.32692 0.94395,-1.74964 0.62929,-0.4227 1.49378,-0.63406 2.59346,-0.63406 0.84542,0 1.58595,0.10489 2.22161,0.31465 l 0,-1.89743 c 0,-0.51487 -0.0636,-0.86607 -0.19069,-1.0536 -0.12714,-0.18751 -0.32101,-0.32894 -0.58163,-0.4243 -0.26062,-0.0953 -0.54984,-0.14301 -0.86766,-0.14302 -0.40047,1e-5 -0.69923,0.0477 -0.89627,0.14302 0.6865,0.20342 1.02975,0.65791 1.02975,1.36348 0,0.47039 -0.13984,0.84543 -0.41953,1.12511 -0.27969,0.27969 -0.65155,0.41954 -1.11557,0.41953 -0.48946,10e-6 -0.88515,-0.14302 -1.18708,-0.42906 -0.30194,-0.28604 -0.45291,-0.6579 -0.45291,-1.11558 0,-0.62293 0.30353,-1.10444 0.91058,-1.44452 0.60704,-0.34007 1.46677,-0.51011 2.57916,-0.51011 1.18231,0 2.15168,0.0826 2.90812,0.2479 0.75642,0.16528 1.31262,0.37346 1.66859,0.62453 0.35596,0.25109 0.60068,0.51489 0.73418,0.79139 0.13348,0.27652 0.20022,0.70399 0.20023,1.28243 l 0,3.59463 c -10e-6,0.19705 0.008,0.32736 0.0238,0.39092 0.0159,0.0636 0.0588,0.0953 0.12872,0.0953 0.12076,0 0.31146,-0.2193 0.57209,-0.6579 z m -5.38717,0.59115 0,-2.73649 c -0.40682,-0.15891 -0.72465,-0.23836 -0.95348,-0.23837 -0.25426,10e-6 -0.43542,0.0636 -0.54348,0.1907 -0.10807,0.12713 -0.1621,0.3369 -0.16209,0.6293 l 0,1.76394 c -10e-6,0.53395 0.19387,0.80092 0.58162,0.80092 0.22883,0 0.58798,-0.13667 1.07743,-0.41 z"
         style="font-size:19.52728653px;fill:#ffffff;font-family:Bodoni MT Black;-inkscape-font-specification:Bodoni MT Black"
         id="path3132" />
      <path
         d="m 480.13773,456.01799 c 0.81999,-1.30308 1.65905,-1.95463 2.51719,-1.95464 0.47673,10e-6 0.85653,0.14621 1.13941,0.43861 0.28285,0.2924 0.42429,0.68651 0.4243,1.18231 -1e-5,0.52124 -0.16687,0.95826 -0.50058,1.31104 -0.33373,0.35279 -0.74531,0.52918 -1.23476,0.52918 -0.45768,0 -0.83589,-0.14461 -1.13464,-0.43383 -0.29877,-0.28922 -0.44814,-0.65313 -0.44814,-1.09174 0,-0.15255 0.0191,-0.27015 0.0572,-0.35279 l -0.0381,-0.0381 c -0.22884,0.21613 -0.42271,0.48311 -0.58162,0.80093 -0.15892,0.31783 -0.23838,0.54031 -0.23837,0.66743 l 0,4.56718 1.26813,0 0,0.39092 -6.81739,0 0,-0.39092 1.21092,0 0,-7.15111 -1.21092,0 0,-0.38139 3.18463,0 c 0.95347,10e-6 1.74168,-0.0858 2.36463,-0.25744 l 0,2.1644 z"
         style="font-size:19.52728653px;fill:#ffffff;font-family:Bodoni MT Black;-inkscape-font-specification:Bodoni MT Black"
         id="path3134" />
    </g>
  </g>
</svg>
