<?xml version="1.0" encoding="UTF-8" standalone="no"?>
<!-- Created with Inkscape (http://www.inkscape.org/) -->

<svg
   xmlns:dc="http://purl.org/dc/elements/1.1/"
   xmlns:cc="http://creativecommons.org/ns#"
   xmlns:rdf="http://www.w3.org/1999/02/22-rdf-syntax-ns#"
   xmlns:svg="http://www.w3.org/2000/svg"
   xmlns="http://www.w3.org/2000/svg"
   xmlns:sodipodi="http://sodipodi.sourceforge.net/DTD/sodipodi-0.dtd"
   xmlns:inkscape="http://www.inkscape.org/namespaces/inkscape"
   width="337.05591"
   height="157.67381"
   id="svg2"
   version="1.1"
   inkscape:version="0.48.2 r9819"
   sodipodi:docname="logo_big.svg"
   inkscape:export-filename="D:\Google Диск\SixHack2016\logo_big.png"
   inkscape:export-xdpi="600"
   inkscape:export-ydpi="600">
  <defs
     id="defs4">
    <inkscape:path-effect
       effect="spiro"
       id="path-effect3032"
       is_visible="true" />
    <inkscape:path-effect
       effect="spiro"
       id="path-effect2999"
       is_visible="true" />
  </defs>
  <sodipodi:namedview
     id="base"
     pagecolor="#ffffff"
     bordercolor="#666666"
     borderopacity="1.0"
     inkscape:pageopacity="0.0"
     inkscape:pageshadow="2"
     inkscape:zoom="1.4"
     inkscape:cx="-5.90118"
     inkscape:cy="127.05387"
     inkscape:document-units="px"
     inkscape:current-layer="layer2"
     showgrid="false"
     inkscape:window-width="1600"
     inkscape:window-height="827"
     inkscape:window-x="-9"
     inkscape:window-y="-9"
     inkscape:window-maximized="1"
     fit-margin-top="0"
     fit-margin-left="0"
     fit-margin-right="0"
     fit-margin-bottom="0" />
  <metadata
     id="metadata7">
    <rdf:RDF>
      <cc:Work
         rdf:about="">
        <dc:format>image/svg+xml</dc:format>
        <dc:type
           rdf:resource="http://purl.org/dc/dcmitype/StillImage" />
        <dc:title />
      </cc:Work>
    </rdf:RDF>
  </metadata>
  <g
     inkscape:groupmode="layer"
     id="layer2"
     inkscape:label="2"
     transform="translate(-208.63676,-323.82321)">
    <path
       style="fill:none;stroke:#000000;stroke-width:4;stroke-linecap:round;stroke-linejoin:miter;stroke-miterlimit:10;stroke-opacity:1;stroke-dasharray:none"
       d="m 315.35714,346.46932 c -8.72302,-8.89513 -21.58935,3.20471 -20.03023,13.39144 0.21352,12.53376 17.78477,16.4153 26.19748,9.10331 11.45586,-8.47494 12.15019,-29.05347 -0.80451,-36.47741 -9.0472,-7.88882 -23.14877,-4.61304 -30.50884,3.96592 -7.89588,7.34956 -10.02045,18.59295 -16.39542,26.89992 -6.40177,5.97483 -17.58648,7.37436 -24.22619,0.9974"
       id="path2997"
       inkscape:connector-curvature="0" />
    <path
       style="fill:none;stroke:#000000;stroke-width:4;stroke-linecap:round;stroke-linejoin:miter;stroke-miterlimit:10;stroke-opacity:1;stroke-dasharray:none"
       d="m 235,347.71932 c 5.4759,12.69367 23.20933,20.04529 35.10832,11.53318"
       id="path3030"
       inkscape:connector-curvature="0" />
    <path
       style="fill:none;stroke:#000000;stroke-width:4;stroke-linecap:round;stroke-linejoin:miter;stroke-miterlimit:10;stroke-opacity:1;stroke-dasharray:none"
       d="m 242.43092,348.08586 c 3.66221,7.66452 13.86352,11.27526 21.53741,7.64901"
       id="path3030-1"
       inkscape:connector-curvature="0" />
    <path
       sodipodi:type="arc"
       style="fill:#000000;fill-opacity:1;stroke:#000000;stroke-width:1;stroke-linecap:round;stroke-linejoin:round;stroke-miterlimit:4;stroke-opacity:1;stroke-dasharray:none;stroke-dashoffset:0"
       id="path3053"
       sodipodi:cx="336.88586"
       sodipodi:cy="307.37469"
       sodipodi:rx="27.274118"
       sodipodi:ry="26.263966"
       d="m 364.15998,307.37469 c 0,14.50519 -12.21104,26.26397 -27.27412,26.26397 -15.06308,0 -27.27411,-11.75878 -27.27411,-26.26397 0,-14.50518 12.21103,-26.26396 27.27411,-26.26396 14.99738,0 27.18103,11.6602 27.2736,26.10184"
       sodipodi:start="0"
       sodipodi:end="6.2770125"
       sodipodi:open="true"
       transform="translate(35.636338,43.212482)" />
    <text
       xml:space="preserve"
       style="font-size:28px;font-style:normal;font-variant:normal;font-weight:normal;font-stretch:normal;line-height:125%;letter-spacing:0px;word-spacing:0px;fill:#000000;fill-opacity:1;stroke:none;font-family:Arial;-inkscape-font-specification:Arial"
       x="207.14285"
       y="438.43359"
       id="text3855"
       sodipodi:linespacing="125%"><tspan
         sodipodi:role="line"
         id="tspan3857"
         x="207.14285"
         y="438.43359"
         style="font-size:70px;font-style:normal;font-variant:normal;font-weight:normal;font-stretch:normal;font-family:Algerian;-inkscape-font-specification:Algerian">CASH BAR</tspan></text>
    <path
       style="fill:none;stroke:#000000;stroke-width:4;stroke-linecap:butt;stroke-linejoin:miter;stroke-miterlimit:4;stroke-opacity:1;stroke-dasharray:none"
       d="m 211.35105,383.07647 329.4505,-0.35715"
       id="path3859"
       inkscape:connector-curvature="0" />
    <path
       style="fill:none;stroke:#000000;stroke-width:4;stroke-linecap:butt;stroke-linejoin:miter;stroke-miterlimit:4;stroke-opacity:1;stroke-dasharray:none"
       d="m 210.63676,446.46933 329.4505,-0.35715"
       id="path3859-4"
       inkscape:connector-curvature="0" />
    <path
       style="fill:#000000;fill-opacity:1;stroke:#000000;stroke-width:1.12681556px;stroke-linecap:butt;stroke-linejoin:miter;stroke-opacity:1"
       d="m 228.42522,458.43361 10.88326,10.71429 -10.42979,11.78571 293.84795,0 -10.42978,-11.07143 9.97631,-10.71428 z"
       id="path3879"
       inkscape:connector-curvature="0" />
    <path
       style="fill:none;stroke:#000000;stroke-width:4;stroke-linecap:round;stroke-linejoin:miter;stroke-miterlimit:10;stroke-opacity:1;stroke-dasharray:none"
       d="m 430.29993,346.99672 c 8.72302,-8.89513 21.58935,3.20471 20.03023,13.39144 -0.21352,12.53376 -17.78477,16.4153 -26.19748,9.10331 -11.45586,-8.47494 -12.15019,-29.05347 0.80451,-36.47741 9.0472,-7.88882 23.14877,-4.61304 30.50884,3.96592 7.89588,7.34956 10.02045,18.59295 16.39542,26.89992 6.40177,5.97483 17.58648,7.37436 24.22619,0.9974"
       id="path2997-8"
       inkscape:connector-curvature="0" />
    <path
       style="fill:none;stroke:#000000;stroke-width:4;stroke-linecap:round;stroke-linejoin:miter;stroke-miterlimit:10;stroke-opacity:1;stroke-dasharray:none"
       d="m 510.65707,348.24672 c -5.47591,12.69365 -23.20932,20.04529 -35.10832,11.53318"
       id="path3030-2"
       inkscape:connector-curvature="0" />
    <path
       style="fill:none;stroke:#000000;stroke-width:4;stroke-linecap:round;stroke-linejoin:miter;stroke-miterlimit:10;stroke-opacity:1;stroke-dasharray:none"
       d="m 503.22615,348.61326 c -3.66221,7.66452 -13.86352,11.27526 -21.53741,7.64901"
       id="path3030-1-4"
       inkscape:connector-curvature="0" />
    <path
       sodipodi:type="arc"
       style="fill:none;stroke:#ffffff;stroke-width:3.85868239;stroke-linecap:round;stroke-linejoin:round;stroke-miterlimit:4;stroke-opacity:1;stroke-dasharray:none;stroke-dashoffset:0"
       id="path3053-1"
       sodipodi:cx="336.88586"
       sodipodi:cy="307.37469"
       sodipodi:rx="27.274118"
       sodipodi:ry="26.263966"
       d="m 364.15998,307.37469 c 0,14.50519 -12.21104,26.26397 -27.27412,26.26397 -15.06308,0 -27.27411,-11.75878 -27.27411,-26.26397 0,-14.50518 12.21103,-26.26396 27.27411,-26.26396 14.99738,0 27.18103,11.6602 27.2736,26.10184"
       sodipodi:start="0"
       sodipodi:end="6.2770125"
       sodipodi:open="true"
       transform="matrix(0.86718577,0,0,0.91666567,79.128112,69.173793)" />
    <text
       xml:space="preserve"
       style="font-size:48.46021652px;font-style:normal;font-variant:normal;font-weight:normal;font-stretch:normal;line-height:125%;letter-spacing:0px;word-spacing:0px;fill:#f9f9f9;fill-opacity:1;stroke:none;font-family:Arial;-inkscape-font-specification:Arial"
       x="310.01913"
       y="417.20917"
       id="text3960"
       sodipodi:linespacing="125%"
       transform="scale(1.1453156,0.87312179)"><tspan
         sodipodi:role="line"
         id="tspan3962"
         x="310.01913"
         y="417.20917"
         style="font-style:normal;font-variant:normal;font-weight:normal;font-stretch:normal;fill:#f9f9f9;font-family:Algerian;-inkscape-font-specification:Algerian">c</tspan></text>
    <path
       sodipodi:type="arc"
       style="fill:#f9f9f9;fill-opacity:1;fill-rule:nonzero;stroke:#ffffff;stroke-width:3.5;stroke-linecap:round;stroke-linejoin:round;stroke-miterlimit:4;stroke-opacity:1;stroke-dasharray:none;stroke-dashoffset:0"
       id="path4224"
       sodipodi:cx="121.78571"
       sodipodi:cy="194.1479"
       sodipodi:rx="11.785714"
       sodipodi:ry="11.785714"
       d="m 133.57143,194.1479 c 0,6.50907 -5.27665,11.78572 -11.78572,11.78572 -6.50907,0 -11.78571,-5.27665 -11.78571,-11.78572 0,-6.50907 5.27664,-11.78571 11.78571,-11.78571 6.48068,0 11.74549,5.23241 11.78549,11.71296"
       sodipodi:start="0"
       sodipodi:end="6.2770125"
       sodipodi:open="true"
       transform="matrix(0.57783641,0,0,0.57783641,184.27064,356.96217)" />
    <path
       sodipodi:type="arc"
       style="fill:#f9f9f9;fill-opacity:1;fill-rule:nonzero;stroke:#ffffff;stroke-width:3.5;stroke-linecap:round;stroke-linejoin:round;stroke-miterlimit:4;stroke-opacity:1;stroke-dasharray:none;stroke-dashoffset:0"
       id="path4224-2"
       sodipodi:cx="121.78571"
       sodipodi:cy="194.1479"
       sodipodi:rx="11.785714"
       sodipodi:ry="11.785714"
       d="m 133.57143,194.1479 c 0,6.50907 -5.27665,11.78572 -11.78572,11.78572 -6.50907,0 -11.78571,-5.27665 -11.78571,-11.78572 0,-6.50907 5.27664,-11.78571 11.78571,-11.78571 6.48068,0 11.74549,5.23241 11.78549,11.71296"
       sodipodi:start="0"
       sodipodi:end="6.2770125"
       sodipodi:open="true"
       transform="matrix(0.57783641,0,0,0.57783641,426.05635,356.96217)" />
    <text
       xml:space="preserve"
       style="font-size:27.33819962px;font-style:normal;font-variant:normal;font-weight:normal;font-stretch:normal;line-height:125%;letter-spacing:0px;word-spacing:0px;fill:#ffffff;fill-opacity:1;stroke:none;font-family:Arial;-inkscape-font-specification:Arial"
       x="287.82065"
       y="462.03445"
       id="text4244"
       sodipodi:linespacing="125%"
       transform="scale(0.97636428,1.0242079)"><tspan
         sodipodi:role="line"
         id="tspan4246"
         x="287.82065"
         y="462.03445"
         style="font-size:19.52728653px;fill:#ffffff;font-family:Bodoni MT Black;-inkscape-font-specification:Bodoni MT Black">get cash in your bar</tspan></text>
  </g>
</svg>
