<?xml version="1.0" encoding="UTF-8" standalone="no"?>
<!-- Created with Inkscape (http://www.inkscape.org/) -->

<svg
   xmlns:dc="http://purl.org/dc/elements/1.1/"
   xmlns:cc="http://creativecommons.org/ns#"
   xmlns:rdf="http://www.w3.org/1999/02/22-rdf-syntax-ns#"
   xmlns:svg="http://www.w3.org/2000/svg"
   xmlns="http://www.w3.org/2000/svg"
   xmlns:sodipodi="http://sodipodi.sourceforge.net/DTD/sodipodi-0.dtd"
   xmlns:inkscape="http://www.inkscape.org/namespaces/inkscape"
   width="90"
   height="90"
   id="svg2"
   version="1.1"
   inkscape:version="0.48.2 r9819"
   sodipodi:docname="logo_small.svg">
  <defs
     id="defs4">
    <inkscape:path-effect
       effect="spiro"
       id="path-effect3032"
       is_visible="true" />
    <inkscape:path-effect
       effect="spiro"
       id="path-effect2999"
       is_visible="true" />
  </defs>
  <sodipodi:namedview
     id="base"
     pagecolor="#ffffff"
     bordercolor="#666666"
     borderopacity="1.0"
     inkscape:pageopacity="0.0"
     inkscape:pageshadow="2"
     inkscape:zoom="2.8"
     inkscape:cx="24.231251"
     inkscape:cy="56.267412"
     inkscape:document-units="px"
     inkscape:current-layer="layer2"
     showgrid="false"
     inkscape:window-width="1600"
     inkscape:window-height="827"
     inkscape:window-x="-9"
     inkscape:window-y="-9"
     inkscape:window-maximized="1"
     fit-margin-top="0"
     fit-margin-left="0"
     fit-margin-right="0"
     fit-margin-bottom="0" />
  <metadata
     id="metadata7">
    <rdf:RDF>
      <cc:Work
         rdf:about="">
        <dc:format>image/svg+xml</dc:format>
        <dc:type
           rdf:resource="http://purl.org/dc/dcmitype/StillImage" />
        <dc:title></dc:title>
      </cc:Work>
    </rdf:RDF>
  </metadata>
  <g
     inkscape:groupmode="layer"
     id="layer2"
     inkscape:label="2"
     transform="translate(-344.74808,-386.96933)">
    <path
       sodipodi:type="arc"
       style="fill:#000000;fill-opacity:1;stroke:#000000;stroke-width:1;stroke-linecap:round;stroke-linejoin:round;stroke-miterlimit:4;stroke-opacity:1;stroke-dasharray:none;stroke-dashoffset:0"
       id="path3053"
       sodipodi:cx="336.88586"
       sodipodi:cy="307.37469"
       sodipodi:rx="27.274118"
       sodipodi:ry="26.263966"
       d="m 364.15998,307.37469 a 27.274118,26.263966 0 1 1 -5.2e-4,-0.16212"
       sodipodi:start="0"
       sodipodi:end="6.2770125"
       sodipodi:open="true"
       transform="matrix(1.5272123,0,0,1.5272123,-123.75975,-38.560011)" />
    <path
       sodipodi:type="arc"
       style="fill:none;stroke:#ffffff;stroke-width:3.85868239;stroke-linecap:round;stroke-linejoin:round;stroke-miterlimit:4;stroke-opacity:1;stroke-dasharray:none;stroke-dashoffset:0"
       id="path3053-1"
       sodipodi:cx="336.88586"
       sodipodi:cy="307.37469"
       sodipodi:rx="27.274118"
       sodipodi:ry="26.263966"
       d="m 364.15998,307.37469 a 27.274118,26.263966 0 1 1 -5.2e-4,-0.16212"
       sodipodi:start="0"
       sodipodi:end="6.2770125"
       sodipodi:open="true"
       transform="matrix(1.3243768,0,0,1.3999431,-57.338578,1.0884222)" />
    <g
       transform="matrix(1.7491401,0,0,1.3334424,-178.18401,-104.55464)"
       style="font-size:48.46021652px;font-style:normal;font-variant:normal;font-weight:normal;font-stretch:normal;line-height:125%;letter-spacing:0px;word-spacing:0px;fill:#f9f9f9;fill-opacity:1;stroke:none;font-family:Arial;-inkscape-font-specification:Arial"
       id="text3960">
      <path
         d="m 335.85827,385.64377 -0.26028,0.44958 c -1.41976,2.47668 -2.65019,4.95332 -3.69131,7.42994 l -0.21296,0.54423 -0.30761,-0.16563 c -0.36284,-2.39775 -1.20679,-4.29861 -2.53185,-5.7026 -1.3251,-1.40393 -2.92625,-2.1059 -4.80343,-2.10594 -2.00341,4e-5 -3.67554,0.87554 -5.01639,2.62651 -1.68791,2.17695 -2.53187,5.86825 -2.53186,11.07392 -1e-5,4.48006 0.7769,7.98995 2.33073,10.52968 1.55381,2.53975 3.71101,3.80962 6.47162,3.80962 2.20845,0 3.97128,-0.73747 5.2885,-2.21242 1.31718,-1.47494 2.10197,-3.58481 2.35439,-6.32964 0.0631,-0.66253 0.33125,-0.9938 0.80452,-0.99381 0.61519,10e-6 0.9228,0.51269 0.92282,1.53804 -2e-5,1.53017 -0.34707,3.11553 -1.04113,4.75611 -1.46708,3.47046 -4.49584,5.20568 -9.0863,5.20568 -4.10146,0 -7.35895,-1.43945 -9.77249,-4.31835 -2.41355,-2.8789 -3.62032,-6.77133 -3.62032,-11.6773 0,-4.52735 1.2541,-8.32119 3.76229,-11.38153 2.50819,-3.06028 5.62371,-4.59044 9.34658,-4.59047 1.76676,3e-5 3.77805,0.43384 6.03386,1.30142 1.18309,0.4575 2.16113,0.68624 2.93412,0.68621 0.83604,3e-5 1.58534,-0.22871 2.24791,-0.68621 z m -6.86204,4.09357 c -1.43552,-1.15154 -2.79216,-1.72732 -4.0699,-1.72735 -4.08569,3e-5 -6.12852,3.89641 -6.12851,11.68914 -10e-6,3.54934 0.47323,6.50317 1.41973,8.8615 0.94648,2.35834 2.27945,3.88455 3.99891,4.57864 l 0,0.23662 c -1.86144,-0.37859 -3.34821,-1.81016 -4.46032,-4.29469 -1.11214,-2.48453 -1.6682,-5.62765 -1.66819,-9.4294 -10e-6,-8.15555 2.24001,-12.23333 6.72007,-12.23336 1.51436,3e-5 2.91043,0.67046 4.18821,2.01129 z m 7.71388,16.25594 c -0.25242,3.91216 -1.34482,6.88965 -3.27721,8.93248 -1.93244,2.04284 -4.63387,3.06426 -8.10431,3.06426 -2.63441,0 -5.08739,-0.8124 -7.35895,-2.43721 l 0,-0.1893 c 2.01916,1.32509 4.45637,1.98763 7.31162,1.98763 3.1234,0 5.67103,-1.0017 7.6429,-3.0051 0.96224,-0.97803 1.6721,-2.07438 2.1296,-3.28905 0.45744,-1.21465 0.76505,-2.82368 0.92282,-4.82709 l 0.0473,-0.54423 z m 0.87551,-19.21372 -0.26029,0.44958 c -1.71948,2.93414 -3.09189,5.60797 -4.11722,8.02149 l -0.63888,-0.30761 0.26028,-0.59155 c 0.78872,-1.65633 1.48281,-3.02874 2.08227,-4.11723 l 1.89298,-3.36003 0.23662,-0.42592 z"
         style="fill:#f9f9f9;font-family:Algerian;-inkscape-font-specification:Algerian"
         id="path4249"
         inkscape:connector-curvature="0" />
    </g>
    <path
       sodipodi:type="arc"
       style="fill:#f9f9f9;fill-opacity:1;fill-rule:nonzero;stroke:#ffffff;stroke-width:3.5;stroke-linecap:round;stroke-linejoin:round;stroke-miterlimit:4;stroke-opacity:1;stroke-dasharray:none;stroke-dashoffset:0"
       id="path4224-2"
       sodipodi:cx="121.78571"
       sodipodi:cy="194.1479"
       sodipodi:rx="11.785714"
       sodipodi:ry="11.785714"
       d="m 133.57143,194.1479 a 11.785714,11.785714 0 1 1 -2.3e-4,-0.0727"
       sodipodi:start="0"
       sodipodi:end="6.2770125"
       sodipodi:open="true"
       transform="matrix(0.57783641,0,0,0.57783641,426.05635,358.96217)" />
  </g>
</svg>
